<?xml version="1.0" encoding="UTF-8"?>
<!DOCTYPE svg PUBLIC "-//W3C//DTD SVG 1.1//EN" "http://www.w3.org/Graphics/SVG/1.1/DTD/svg11.dtd">
<!-- Creator: CorelDRAW X8 -->
<svg xmlns="http://www.w3.org/2000/svg" xml:space="preserve" width="106.934mm" height="119.663mm" version="1.1" style="shape-rendering:geometricPrecision; text-rendering:geometricPrecision; image-rendering:optimizeQuality; fill-rule:evenodd; clip-rule:evenodd"
viewBox="0 0 10698 11971"
 xmlns:xlink="http://www.w3.org/1999/xlink">
 <defs>
  <style type="text/css">
   <![CDATA[
    .str0 {stroke:#D0D0D1;stroke-width:7.62298}
    .fil1 {fill:none}
    .fil2 {fill:#D0D0D1}
    .fil0 {fill:#0B3B65}
   ]]>
  </style>
 </defs>
 <g id="Warstwa_x0020_1">
  <metadata id="CorelCorpID_0Corel-Layer"/>
  <polygon class="fil0" points="4,11967 10694,11967 10694,4 4,4 "/>
  <polygon class="fil1 str0" points="4,11967 10694,11967 10694,4 4,4 "/>
  <path class="fil2" d="M8547 9960l0 -612 64 0 0 252 237 0 0 -252 64 0 0 612 -64 0 0 -296 -237 0 0 296 -64 0zm-473 -296c0,-47 2,-88 4,-122 3,-33 11,-66 23,-99 12,-33 32,-59 60,-81 27,-21 65,-32 111,-34 32,0 61,6 87,18 26,12 47,32 63,61 16,28 24,66 24,112 0,7 -1,12 -1,15l-64 0c0,-41 -8,-75 -23,-101 -16,-27 -47,-40 -92,-40 -48,0 -79,24 -93,74 -15,49 -22,107 -22,173l0 24c0,49 2,90 7,123 4,33 15,61 32,84 17,23 42,36 76,38 31,0 54,-9 70,-28 17,-18 27,-40 32,-65 4,-25 7,-52 7,-81l70 0c0,5 1,12 1,21 0,30 -4,58 -10,84 -6,26 -17,49 -30,69 -14,20 -32,36 -55,47 -22,12 -49,17 -79,17 -42,-2 -76,-10 -102,-26 -26,-15 -47,-36 -60,-63 -14,-27 -23,-59 -28,-94 -5,-36 -8,-78 -8,-126zm-301 296l0 -232 -185 -380 83 0 134 303 135 -303 76 0 -173 380 0 232 -70 0zm-632 0l0 -612 115 0 192 554 0 -554 70 0 0 612 -116 0 -191 -561 0 561 -70 0zm-601 0l-127 -612 76 0 83 419 13 122 19 -122 90 -419 83 0 90 438 12 110 13 -110 89 -438 71 0 -128 612 -90 0 -89 -470 -13 -91 -6 91 -97 470 -89 0zm-288 -238l-77 -316 -76 316 153 0zm-294 238l173 -612 96 0 166 612 -77 0 -44 -174 -192 0 -45 174 -77 0zm-363 -335l108 0c24,0 44,-4 60,-12 16,-8 29,-20 37,-35 9,-15 13,-33 13,-54 0,-2 0,-4 0,-7 -1,-4 -1,-6 -1,-8 -3,-35 -14,-60 -34,-74 -19,-15 -48,-23 -88,-23l-95 0 0 213zm-71 335l0 -612 179 0c33,0 62,4 88,12 25,7 47,22 65,45 18,23 29,55 33,97l0 12c0,25 -6,47 -17,67 -11,20 -26,36 -43,48 -18,12 -36,20 -55,22 6,1 15,3 25,5 10,3 20,6 29,11 10,4 18,12 26,22 7,10 13,23 15,39 3,26 5,57 9,91 3,34 7,63 13,87 6,23 13,35 23,35l0 19 -83 0c-9,-18 -15,-43 -17,-73 -1,-30 -4,-61 -6,-95 -2,-33 -10,-58 -24,-76 -13,-18 -36,-26 -68,-26l-121 0 0 270 -71 0zm-383 -322l95 0c41,0 70,-9 88,-26 18,-17 27,-47 27,-90 0,-69 -36,-103 -108,-103l-102 0 0 219zm-71 322l0 -612 173 0c52,0 96,13 132,38 36,26 53,73 53,143 0,33 -5,62 -16,88 -11,26 -29,47 -53,63 -25,15 -57,23 -96,23 -6,0 -11,-1 -14,-1l-108 0 0 258 -71 0zm-818 0l-128 -612 77 0 83 419 13 122 19 -122 90 -419 82 0 90 438 13 110 13 -110 89 -438 70 0 -127 612 -90 0 -89 -470 -14 -91 -5 91 -97 470 -89 0zm-367 -774l89 0 -102 117 -58 0 71 -117zm-152 457c0,0 0,6 0,18 1,11 1,24 1,38 1,37 5,71 12,102 6,31 19,57 39,80 19,22 46,33 82,33 35,0 63,-10 82,-29 19,-20 31,-44 37,-73 6,-31 9,-64 9,-101 0,-2 0,-7 0,-15 0,-8 -1,-14 -1,-20l0 -33c0,-51 -3,-93 -9,-128 -6,-34 -19,-62 -39,-84 -20,-21 -48,-32 -86,-32 -34,0 -61,12 -79,35 -19,25 -32,55 -39,90 -6,37 -9,77 -9,119zm-71 1c1,-27 3,-57 5,-91 3,-36 9,-70 21,-102 11,-32 31,-59 59,-81 29,-22 69,-34 119,-36 42,0 77,9 105,28 28,18 49,43 63,73 13,28 23,61 29,99 5,29 7,68 7,117l0 17c0,83 -12,155 -36,214 -26,60 -82,90 -168,90 -53,0 -94,-13 -124,-40 -30,-25 -51,-61 -63,-109 -11,-48 -17,-108 -17,-179zm-458 20c0,-47 1,-88 4,-122 3,-33 11,-66 23,-99 12,-33 32,-59 60,-81 27,-21 64,-32 111,-34 32,0 61,6 86,18 26,12 47,32 63,61 16,28 24,66 24,112 0,7 0,12 0,15l-64 0c0,-41 -8,-75 -23,-101 -16,-27 -47,-40 -93,-40 -47,0 -78,24 -93,74 -14,49 -21,107 -21,173l0 24c0,49 2,90 7,123 4,33 15,61 32,84 17,23 42,36 75,38 32,0 55,-9 71,-28 17,-18 27,-40 31,-65 5,-25 7,-52 7,-81l71 0c0,5 0,12 0,21 0,30 -3,58 -9,84 -7,26 -17,49 -31,69 -13,20 -31,36 -54,47 -22,12 -49,17 -79,17 -42,-2 -76,-10 -102,-26 -27,-15 -47,-36 -60,-63 -14,-27 -24,-59 -29,-94 -4,-36 -7,-78 -7,-126zm-402 232l109 0c85,0 128,-69 128,-206 0,-7 0,-13 0,-20 -1,-6 -1,-10 -1,-13 0,-54 -3,-98 -8,-132 -6,-33 -20,-61 -41,-82 -21,-20 -54,-31 -98,-31l-89 0 0 484zm-71 64l0 -612 180 0c136,0 204,95 204,284 0,51 -4,100 -12,147 -8,46 -28,88 -58,125 -31,37 -77,56 -139,56l-175 0zm-218 -238l-76 -316 -77 316 153 0zm-293 238l172 -612 96 0 166 612 -77 0 -44 -174 -192 0 -44 174 -77 0zm-364 -335l109 0c23,0 43,-4 59,-12 17,-8 29,-20 38,-35 8,-15 12,-33 12,-54 0,-2 0,-4 0,-7 0,-4 -1,-6 -1,-8 -3,-35 -14,-60 -33,-74 -20,-15 -49,-23 -88,-23l-96 0 0 213zm-70 335l0 -612 179 0c32,0 61,4 87,12 25,7 47,22 65,45 18,23 29,55 33,97l0 12c0,25 -5,47 -16,67 -12,20 -26,36 -44,48 -18,12 -36,20 -55,22 7,1 15,3 26,5 10,3 19,6 29,11 9,4 17,12 25,22 8,10 13,23 16,39 2,26 5,57 8,91 3,34 8,63 13,87 6,23 14,35 24,35l0 19 -84 0c-9,-18 -14,-43 -16,-73 -2,-30 -4,-61 -7,-95 -2,-33 -10,-58 -23,-76 -14,-18 -37,-26 -69,-26l-121 0 0 270 -70 0z"/>
  <path class="fil2" d="M7736 8776l-77 -313 -76 313 153 0zm-294 237l173 -607 96 0 166 607 -77 0 -44 -173 -192 0 -45 173 -77 0zm-326 -64l115 0c64,0 95,-36 95,-109 0,-40 -9,-68 -26,-84 -18,-17 -45,-25 -82,-25l-102 0 0 218zm89 -281c38,0 64,-10 79,-31 16,-20 23,-44 23,-72 0,-21 -2,-39 -9,-53 -6,-15 -15,-26 -28,-34 -13,-8 -30,-13 -52,-15l-102 0 0 205 89 0zm-160 345l0 -607 160 0c31,0 60,5 87,14 27,10 49,26 66,50 18,24 26,56 26,95 0,35 -8,63 -24,82 -16,20 -38,35 -65,46 39,6 65,21 80,46 15,24 22,55 22,95 0,37 -6,69 -18,96 -12,26 -32,47 -59,61 -26,15 -60,22 -102,22l-173 0zm-453 -64l282 -480 -275 0 -1 -63 352 0 0 63 -281 480 287 0 0 64 -364 0 0 -64zm-172 64l0 -607 70 0 0 607 -70 0zm-429 -237l-77 -313 -76 313 153 0zm-294 237l173 -607 96 0 166 607 -77 0 -44 -173 -193 0 -44 173 -77 0zm-550 0l-127 -607 77 0 82 416 14 121 18 -121 90 -416 83 0 90 434 12 109 13 -109 89 -434 71 0 -128 607 -90 0 -89 -467 -13 -89 -6 89 -96 467 -90 0zm-516 -314c0,1 0,19 1,56 2,36 5,70 12,101 7,30 20,57 39,79 19,22 47,33 82,33 36,0 63,-10 82,-29 19,-19 32,-44 37,-73 6,-29 9,-62 9,-99 0,-9 0,-20 0,-35 0,-15 -1,-26 -1,-33 0,-50 -3,-92 -9,-127 -6,-34 -19,-62 -38,-83 -20,-22 -49,-32 -87,-32 -33,0 -60,11 -79,35 -19,24 -32,54 -38,89 -7,36 -10,75 -10,118zm-71 0c1,-24 3,-54 5,-89 3,-36 9,-70 21,-102 11,-31 31,-58 60,-80 28,-22 68,-34 119,-35 42,0 77,9 104,27 28,19 49,43 63,73 15,30 24,63 30,98 5,36 7,74 7,115l0 17c0,83 -12,153 -37,213 -25,59 -81,89 -167,89 -54,0 -95,-13 -125,-39 -30,-26 -51,-62 -63,-109 -11,-48 -17,-107 -17,-178zm-384 123l70 0c0,4 1,20 3,48 1,27 3,46 6,57 3,11 9,19 17,25 9,6 22,9 39,9 15,0 28,-2 39,-6 10,-3 19,-12 26,-26 7,-14 11,-35 11,-63l0 -460 70 0 0 416c0,34 -1,63 -3,86 -2,23 -8,44 -16,62 -8,17 -21,31 -39,41 -17,10 -40,15 -70,15l-12 0c-54,0 -91,-14 -111,-42 -21,-28 -31,-70 -31,-125 0,-17 0,-29 1,-37zm-173 -46l-77 -313 -76 313 153 0zm-294 237l173 -607 95 0 167 607 -77 0 -44 -173 -193 0 -44 173 -77 0zm-364 -332l109 0c23,0 43,-4 60,-12 16,-8 29,-20 37,-35 9,-15 13,-33 13,-54 0,-1 0,-4 -1,-7 0,-4 0,-6 0,-8 -3,-34 -15,-59 -34,-74 -19,-14 -49,-22 -88,-22l-96 0 0 212zm-70 332l0 -607 179 0c33,0 62,4 87,11 26,8 47,23 65,45 19,23 30,55 34,97l0 11c0,25 -6,47 -17,67 -11,20 -26,36 -44,48 -17,12 -36,19 -55,21 7,1 16,3 26,5 10,3 20,6 29,11 9,4 18,12 25,22 8,10 13,23 16,39 3,26 5,56 8,90 4,34 8,63 14,86 5,23 13,35 23,35l0 19 -83 0c-9,-18 -15,-42 -17,-72 -1,-30 -4,-61 -6,-95 -3,-33 -11,-58 -24,-75 -13,-18 -36,-26 -69,-26l-121 0 0 268 -70 0zm-461 0l0 -607 71 0 0 307 217 -307 90 0 -198 255 204 352 -89 0 -161 -288 -63 77 0 211 -71 0z"/>
  <path class="fil2" d="M5326 2426c1313,587 1890,2287 1983,3002 -950,571 -3045,659 -3981,-23 18,-678 829,-2532 1998,-2979zm1059 3599l35 123 78 -22c21,-5 35,-14 45,-26 11,-15 14,-35 7,-58 -5,-18 -15,-30 -30,-36 -19,-8 -46,-7 -81,3l-54 16zm-842 140l11 114 79 -7c32,-4 55,-12 67,-25 9,-10 13,-23 11,-40 -1,-18 -10,-32 -25,-41 -14,-9 -32,-12 -53,-10l-90 9zm625 -219l265 -75c79,-22 143,-22 192,0 49,22 82,66 100,130 15,55 12,103 -11,143 -28,49 -83,85 -165,108l-93 27 48 174 -181 51 -155 -558zm-2189 -125l182 50 -49 181 210 -136 212 58 -259 155 129 410 -218 -60 -73 -260 -55 34 -49 177 -182 -50 152 -559zm869 189l188 21 -63 576 -188 -21 63 -576zm494 39l277 -27c98,-10 168,0 209,29 32,22 50,59 55,110 4,40 -2,72 -18,97 -15,25 -37,43 -65,54 46,13 75,29 87,49 12,20 20,52 25,95l4 44c2,21 5,36 9,44 3,8 9,12 16,11l2 17 -189 19c-6,-13 -12,-46 -20,-100 -8,-53 -22,-82 -44,-88 -12,-2 -26,-3 -40,-3 -14,0 -33,1 -56,3l-28 3 20 201 -187 19 -57 -577zm48 -3797c1302,619 2164,2464 2194,3918 -1237,745 -3198,846 -4535,0 60,-2021 1353,-3577 2197,-3917 78,-32 93,-16 144,-1z"/>
  <path class="fil2" d="M5343 7290l165 -341 220 -11 -196 198 298 -229 179 -15 -36 81c78,-74 165,-121 248,-132l-18 59c123,-77 243,-119 361,-119l-50 74 93 -9c152,-196 446,-346 1053,-521l-56 74 -736 376c144,12 561,-238 694,-317 -177,382 -491,541 -941,475 -254,-20 -410,16 -574,137 305,-92 632,-109 952,-15 -414,363 -404,440 -1058,160 -285,-109 -428,6 -598,75z"/>
  <path class="fil2" d="M5170 6954l146 258 148 -261 -125 2c0,22 14,23 14,46 0,17 -14,34 -31,34 -18,0 -32,-17 -32,-34 0,-23 13,-23 11,-46l-131 1z"/>
  <path class="fil2" d="M5288 7290l-165 -341 -219 -11 196 198 -298 -229 -180 -15 36 81c-77,-74 -164,-121 -247,-132l17 59c-122,-77 -242,-119 -361,-119l51 74 -94 -9c-151,-196 -446,-346 -1052,-521l56 74 736 376c-144,12 -561,-239 -695,-317 178,382 492,541 942,475 254,-20 410,16 573,137 -304,-92 -632,-109 -951,-15 414,363 404,440 1058,160 285,-109 428,6 597,75z"/>
  <path class="fil2" d="M5305 7409c-224,-280 -528,-243 -970,-1 308,231 738,206 970,1z"/>
  <path class="fil2" d="M6435 2935l-53 -40c-295,-326 -629,-593 -997,-768 -12,-3 -22,-7 -31,-10l-3 -1c212,46 424,132 636,243l-553 -360c261,53 523,107 784,160 68,413 288,712 682,897 -367,-254 -601,-556 -605,-861 441,169 806,417 776,710 -35,414 44,610 250,736l9 -8c-234,-295 -273,-564 -193,-840 282,242 431,430 395,563 -86,339 -90,672 -43,943 -187,-114 -359,-265 -433,-462l188 -18 -236 -39c-46,-82 -93,-162 -143,-241l267 38 -333 -142c-34,-50 -68,-100 -103,-149l109 -69 -153 9c-47,-64 -96,-126 -145,-186l227 46 -298 -152c0,1 -1,1 -1,1zm1286 3012c3,-354 101,-652 390,-973 -3,366 -136,684 -390,973zm-115 -594c75,-116 330,-320 421,-353 -134,180 -257,403 -371,610 -14,-85 -31,-171 -50,-257zm-395 -1172l384 222c-124,-334 -148,-669 26,-1008 312,500 301,617 -4,1198l-2 364c33,-298 127,-549 309,-733 216,415 61,749 -338,1045 -87,-367 -214,-736 -375,-1088z"/>
  <path class="fil2" d="M5326 7409c224,-280 529,-243 970,-1 -307,231 -738,206 -970,1z"/>
  <path class="fil2" d="M2927 5946c-3,-354 -100,-652 -390,-973 4,366 137,683 390,973zm1287 -3012l53 -41c294,-326 629,-592 997,-767 12,-4 22,-7 31,-10l2 -2c-212,47 -424,132 -635,244l552 -360c-261,53 -522,106 -783,159 -68,414 -289,712 -682,897 367,-254 601,-555 604,-861 -440,169 -805,417 -776,710 36,415 -43,610 -250,737l-8 -9c234,-295 273,-563 192,-839 -282,242 -431,430 -394,562 85,340 90,673 43,944 187,-115 359,-266 433,-462l-188 -19 236 -38c45,-82 93,-163 142,-242l-266 38 333 -141c34,-51 68,-101 103,-150l-110 -69 154 10c47,-64 95,-126 145,-186l-228 45 299 -151c0,0 0,0 1,1zm-776 1245l-384 222c123,-333 147,-669 -27,-1008 -312,500 -301,617 5,1199l2 363c-34,-297 -127,-549 -309,-733 -216,416 -61,749 337,1045 88,-366 214,-735 376,-1088zm-395 1173c-75,-116 -330,-321 -422,-353 134,180 258,402 372,609 14,-85 31,-170 50,-256z"/>
  <path class="fil2" d="M4736 3276c0,-152 52,-281 158,-386 106,-105 245,-157 418,-157 254,0 430,84 526,251 51,87 78,201 81,341l-278 0c-8,-100 -25,-174 -53,-221 -50,-86 -137,-129 -262,-129 -100,0 -176,23 -229,70 -52,46 -78,109 -78,187 0,45 9,86 29,122 19,37 49,69 88,96 79,53 218,136 418,247 357,199 535,408 535,629 0,125 -38,234 -114,328 -44,54 -118,118 -221,191 56,51 99,108 130,169 31,61 46,126 46,197 0,142 -56,265 -167,369 -111,103 -261,155 -450,155 -249,0 -424,-80 -523,-240 -55,-86 -89,-208 -100,-366l282 0c9,103 28,179 56,227 51,88 139,131 266,131 82,0 149,-11 198,-33 94,-41 141,-118 141,-232 0,-48 -15,-93 -43,-135 -17,-24 -41,-48 -72,-73 -17,-14 -72,-52 -166,-115 -54,-37 -107,-73 -157,-106l-283 -188c-112,-74 -193,-139 -240,-194 -84,-94 -126,-199 -126,-316 0,-101 32,-192 94,-274 63,-81 145,-153 247,-215 -47,-42 -83,-87 -108,-135 -29,-62 -43,-126 -43,-195zm855 1438c63,-36 109,-71 139,-107 52,-62 79,-139 79,-231 0,-82 -28,-152 -84,-209 -35,-37 -106,-87 -214,-152l-462 -281c-63,33 -109,66 -138,98 -56,59 -85,130 -85,214 0,46 7,86 21,121 27,64 76,119 148,165l596 382z"/>
 </g>
</svg>
