<?xml version="1.0" encoding="UTF-8"?>
<!DOCTYPE svg PUBLIC "-//W3C//DTD SVG 1.1//EN" "http://www.w3.org/Graphics/SVG/1.1/DTD/svg11.dtd">
<!-- Creator: CorelDRAW X8 -->
<svg xmlns="http://www.w3.org/2000/svg" xml:space="preserve" width="29.8637mm" height="13.5272mm" version="1.1" style="shape-rendering:geometricPrecision; text-rendering:geometricPrecision; image-rendering:optimizeQuality; fill-rule:evenodd; clip-rule:evenodd"
viewBox="0 0 1156 523"
 xmlns:xlink="http://www.w3.org/1999/xlink">
 <defs>
  <style type="text/css">
   <![CDATA[
    .fil0 {fill:#FEFEFE;fill-rule:nonzero}
   ]]>
  </style>
 </defs>
 <g id="Warstwa_x0020_1">
  <metadata id="CorelCorpID_0Corel-Layer"/>
  <g id="_1741617116672">
   <g>
    <polygon class="fil0" points="564,262 608,110 576,10 546,10 546,0 709,0 709,10 678,10 757,259 820,10 767,10 767,0 872,0 872,10 837,10 740,373 694,373 616,136 547,373 502,373 369,10 344,10 344,0 515,0 515,10 478,10 "/>
    <polygon class="fil0" points="220,410 263,258 232,158 202,158 202,148 365,148 365,158 334,158 412,407 475,158 427,158 422,148 525,148 527,158 493,158 396,521 349,521 271,283 203,521 157,521 25,158 0,158 0,148 171,148 171,158 134,158 "/>
   </g>
   <path class="fil0" d="M507 457l6 0 -22 -26 21 -22 -6 0 -28 29 0 -29 -5 0 0 48 5 0 0 -12 10 -10 19 22zm48 0l6 0 -22 -48 -5 0 -22 48 5 0 6 -13 27 0 5 13zm-30 -17l11 -25 12 25 -23 0zm79 -31l0 39 -31 -39 -4 0 0 48 5 0 0 -39 30 39 5 0 0 -48 -5 0zm41 49c7,0 13,-3 17,-7l-3 -4c-4,4 -8,6 -14,6 -11,0 -20,-8 -20,-20 0,-11 9,-20 20,-20 6,0 10,2 14,6l3 -3c-4,-5 -10,-7 -17,-7 -14,0 -25,10 -25,24 0,14 11,25 25,25zm33 -5l0 -18 25 0 0 -4 -25 0 0 -17 28 0 0 -5 -33 0 0 48 34 0 0 -4 -29 0zm41 4l32 0 0 -4 -27 0 0 -44 -5 0 0 48zm76 0l5 0 -22 -48 -5 0 -21 48 5 0 6 -13 26 0 6 13zm-31 -17l12 -25 11 25 -23 0zm82 17l-11 -16c7,-3 11,-8 11,-15 0,-11 -8,-17 -20,-17l-18 0 0 48 5 0 0 -15 13 0c1,0 3,0 4,0l11 15 5 0zm-20 -19l-13 0 0 -24 13 0c10,0 15,4 15,12 0,7 -5,12 -15,12zm32 19l5 0 0 -48 -5 0 0 48zm56 0l5 0 -22 -48 -5 0 -21 48 5 0 6 -13 26 0 6 13zm-31 -17l12 -25 11 25 -23 0zm-372 83l-11 -16c7,-3 10,-8 10,-15 0,-11 -7,-17 -19,-17l-18 0 0 48 5 0 0 -15 13 0c1,0 3,0 4,0l11 15 5 0zm-20 -19l-13 0 0 -24 13 0c9,0 14,4 14,12 0,7 -5,12 -14,12zm67 19l5 0 -21 -48 -5 0 -22 48 5 0 6 -13 26 0 6 13zm-30 -17l11 -26 12 26 -23 0zm43 17l20 0c15,0 25,-10 25,-24 0,-14 -10,-24 -25,-24l-20 0 0 48zm5 -4l0 -39 15 0c12,0 20,8 20,19 0,12 -8,20 -20,20l-15 0zm73 4c7,0 13,-2 17,-7l-3 -3c-4,4 -9,6 -14,6 -12,0 -20,-9 -20,-20 0,-11 8,-20 20,-20 5,0 10,2 14,6l3 -3c-4,-5 -10,-7 -17,-7 -15,0 -25,10 -25,24 0,14 10,24 25,24zm62 -48l-5 0 -16 27 -17 -27 -5 0 19 31 0 17 5 0 0 -17 19 -31zm44 0l-18 0 0 48 5 0 0 -15 13 0c12,0 19,-6 19,-16 0,-11 -7,-17 -19,-17zm0 28l-13 0 0 -23 13 0c9,0 14,4 14,12 0,7 -5,11 -14,11zm68 20l-11 -16c7,-3 11,-8 11,-15 0,-11 -8,-17 -20,-17l-18 0 0 48 5 0 0 -15 13 0c2,0 3,0 4,0l11 15 5 0zm-20 -19l-13 0 0 -24 13 0c10,0 15,4 15,12 0,7 -5,12 -15,12zm67 19l6 0 -22 -48 -5 0 -22 48 5 0 6 -13 27 0 5 13zm-30 -17l11 -26 12 26 -23 0zm102 -31l-14 42 -14 -42 -5 0 -14 41 -14 -41 -5 0 16 48 5 0 14 -41 14 41 6 0 16 -48 -5 0zm49 0l0 39 -31 -39 -4 0 0 48 5 0 0 -39 31 39 4 0 0 -48 -5 0zm26 44l0 -18 24 0 0 -4 -24 0 0 -17 27 0 0 -5 -33 0 0 48 34 0 0 -4 -28 0zm74 -4c-4,3 -8,4 -13,4 -12,0 -20,-9 -20,-20 0,-11 8,-20 20,-20 6,0 10,2 14,6l4 -3c-5,-5 -11,-7 -18,-7 -15,0 -25,10 -25,24 0,14 10,24 25,24 6,0 13,-2 17,-6l0 -18 -4 0 0 16zm39 8c15,0 26,-10 26,-24 0,-14 -11,-24 -26,-24 -14,0 -25,10 -25,24 0,14 11,24 25,24zm0 -4c-11,0 -20,-8 -20,-20 0,-11 9,-20 20,-20 12,0 20,9 20,20 0,12 -8,20 -20,20z"/>
  </g>
 </g>
</svg>
