<?xml version="1.0" encoding="UTF-8"?>
<!DOCTYPE svg PUBLIC "-//W3C//DTD SVG 1.1//EN" "http://www.w3.org/Graphics/SVG/1.1/DTD/svg11.dtd">
<!-- Creator: CorelDRAW X8 -->
<svg xmlns="http://www.w3.org/2000/svg" xml:space="preserve" width="106.539mm" height="119.239mm" version="1.1" style="shape-rendering:geometricPrecision; text-rendering:geometricPrecision; image-rendering:optimizeQuality; fill-rule:evenodd; clip-rule:evenodd"
viewBox="0 0 10654 11924"
 xmlns:xlink="http://www.w3.org/1999/xlink">
 <defs>
  <style type="text/css">
   <![CDATA[
    .fil0 {fill:none}
    .fil1 {fill:#fefefe}
   ]]>
  </style>
 </defs>
 <g id="Warstwa_x0020_1">
  <metadata id="CorelCorpID_0Corel-Layer"/>
  <rect class="fil0" width="10654" height="11924"/>
  <path class="fil1" d="M8533 9917l0 -611 64 0 0 251 237 0 0 -251 64 0 0 611 -64 0 0 -295 -237 0 0 295 -64 0zm-473 -295c0,-48 2,-88 4,-122 3,-34 11,-67 23,-99 12,-33 32,-60 60,-81 27,-21 64,-32 111,-34 32,0 60,6 86,18 26,12 47,32 63,61 16,28 24,65 24,112 0,7 0,12 0,15l-64 0c0,-41 -8,-75 -23,-102 -16,-26 -47,-39 -93,-39 -47,0 -78,24 -93,73 -14,50 -21,107 -21,174l0 24c0,48 2,89 7,123 4,33 15,61 32,84 17,23 42,35 75,37 32,0 55,-9 71,-27 17,-19 27,-40 31,-66 5,-25 7,-52 7,-80l71 0c0,4 0,12 0,21 0,29 -3,57 -9,83 -7,26 -17,49 -31,69 -13,20 -31,36 -54,48 -22,11 -49,17 -79,17 -42,-2 -76,-11 -102,-26 -27,-16 -47,-37 -60,-64 -14,-27 -24,-58 -29,-94 -4,-35 -7,-77 -7,-125zm-301 295l0 -231 -185 -380 83 0 134 302 135 -302 76 0 -173 380 0 231 -70 0zm-632 0l0 -611 115 0 192 554 0 -554 70 0 0 611 -115 0 -192 -560 0 560 -70 0zm-600 0l-128 -611 77 0 82 419 14 122 18 -122 91 -419 82 0 90 438 12 109 13 -109 89 -438 71 0 -128 611 -90 0 -89 -469 -13 -91 -6 91 -96 469 -89 0zm-288 -238l-77 -315 -76 315 153 0zm-294 238l173 -611 95 0 166 611 -76 0 -45 -173 -192 0 -44 173 -77 0zm-363 -334l108 0c23,0 43,-4 60,-12 16,-8 29,-20 37,-35 8,-15 13,-33 13,-54 0,-2 0,-4 -1,-8 0,-3 0,-6 0,-7 -3,-35 -15,-60 -34,-75 -19,-14 -49,-22 -88,-22l-95 0 0 213zm-71 334l0 -611 179 0c33,0 62,4 87,11 26,8 47,23 65,46 19,22 30,55 34,97l0 12c0,24 -6,47 -17,67 -11,20 -26,36 -44,48 -17,12 -36,19 -55,21 7,2 16,4 26,6 10,2 20,6 29,10 9,5 18,12 25,22 8,11 13,24 16,40 3,26 5,56 8,90 4,35 8,64 14,87 5,24 13,36 23,36l0 18 -83 0c-9,-18 -15,-42 -17,-72 -2,-30 -4,-62 -6,-95 -3,-33 -11,-59 -24,-76 -13,-18 -36,-27 -69,-27l-120 0 0 270 -71 0zm-383 -322l95 0c41,0 70,-8 88,-25 18,-17 27,-47 27,-90 0,-69 -36,-103 -108,-103l-102 0 0 218zm-71 322l0 -611 173 0c52,0 96,13 132,38 36,26 53,73 53,143 0,32 -5,62 -16,88 -11,26 -29,47 -53,62 -25,16 -57,23 -96,23 -6,0 -11,0 -14,0l-108 0 0 257 -71 0zm-818 0l-127 -611 77 0 82 419 13 122 19 -122 90 -419 83 0 90 438 12 109 13 -109 89 -438 71 0 -128 611 -90 0 -89 -469 -13 -91 -6 91 -97 469 -89 0zm-367 -774l90 0 -103 117 -57 0 70 -117zm-152 458c0,0 0,6 1,17 0,12 1,25 1,39 1,36 5,70 11,101 7,31 20,58 40,80 19,23 46,34 81,34 36,0 63,-10 82,-30 19,-19 32,-43 38,-72 6,-31 9,-65 9,-101 0,-3 0,-8 -1,-15 0,-8 0,-15 0,-20l0 -33c0,-51 -3,-94 -10,-128 -6,-34 -18,-62 -38,-84 -20,-22 -49,-32 -86,-32 -34,0 -61,12 -79,35 -20,25 -32,54 -39,90 -7,37 -10,77 -10,119zm-70 1c1,-27 2,-57 5,-91 2,-37 9,-71 20,-102 12,-32 32,-59 60,-81 29,-22 68,-34 118,-36 42,0 77,9 105,28 28,18 49,43 63,73 13,28 23,60 30,99 4,29 7,68 7,116l0 18c0,83 -12,154 -37,214 -25,60 -81,90 -168,90 -52,0 -93,-14 -124,-40 -30,-25 -50,-62 -62,-110 -11,-48 -17,-107 -17,-178zm-458 20c0,-48 1,-88 4,-122 3,-34 10,-67 23,-99 12,-33 32,-60 59,-81 28,-21 65,-32 112,-34 31,0 60,6 86,18 26,12 47,32 63,61 16,28 24,65 24,112 0,7 0,12 -1,15l-63 0c0,-41 -8,-75 -24,-102 -15,-26 -46,-39 -92,-39 -48,0 -79,24 -93,73 -14,50 -21,107 -21,174l0 24c0,48 2,89 7,123 4,33 15,61 32,84 16,23 42,35 75,37 31,0 55,-9 71,-27 16,-19 27,-40 31,-66 5,-25 7,-52 7,-80l70 0c1,4 1,12 1,21 0,29 -3,57 -10,83 -6,26 -16,49 -30,69 -14,20 -32,36 -54,48 -22,11 -49,17 -79,17 -42,-2 -76,-11 -103,-26 -26,-16 -46,-37 -60,-64 -13,-27 -23,-58 -28,-94 -5,-35 -7,-77 -7,-125zm-402 231l108 0c86,0 129,-68 129,-206 0,-6 0,-13 -1,-19 0,-6 0,-11 0,-13 0,-55 -3,-99 -9,-132 -5,-34 -19,-61 -40,-82 -21,-20 -54,-31 -98,-31l-89 0 0 483zm-71 64l0 -611 179 0c137,0 205,95 205,284 0,50 -4,99 -12,146 -8,47 -28,89 -59,126 -30,37 -77,55 -138,55l-175 0zm-217 -238l-77 -315 -76 315 153 0zm-294 238l173 -611 95 0 166 611 -77 0 -44 -173 -192 0 -44 173 -77 0zm-364 -334l109 0c23,0 43,-4 60,-12 16,-8 28,-20 37,-35 8,-15 13,-33 13,-54 0,-2 -1,-4 -1,-8 0,-3 0,-6 0,-7 -4,-35 -15,-60 -34,-75 -20,-14 -49,-22 -88,-22l-96 0 0 213zm-70 334l0 -611 179 0c33,0 62,4 87,11 25,8 47,23 65,46 18,22 29,55 34,97l0 12c0,24 -6,47 -17,67 -12,20 -26,36 -44,48 -17,12 -36,19 -55,21 7,2 16,4 26,6 10,2 20,6 29,10 9,5 18,12 25,22 8,11 13,24 16,40 2,26 5,56 8,90 3,35 8,64 14,87 5,24 13,36 23,36l0 18 -84 0c-9,-18 -14,-42 -16,-72 -2,-30 -4,-62 -6,-95 -3,-33 -11,-59 -24,-76 -14,-18 -36,-27 -69,-27l-121 0 0 270 -70 0z"/>
  <path class="fil1" d="M7722 8734l-77 -313 -76 313 153 0zm-293 237l172 -607 96 0 166 607 -77 0 -44 -173 -192 0 -44 173 -77 0zm-327 -64l115 0c64,0 95,-36 95,-109 0,-40 -8,-68 -26,-84 -18,-17 -45,-25 -81,-25l-103 0 0 218zm89 -281c38,0 64,-10 80,-31 15,-19 23,-44 23,-72 0,-21 -3,-39 -10,-53 -5,-15 -15,-26 -28,-34 -13,-8 -30,-13 -51,-15l-103 0 0 205 89 0zm-159 345l0 -607 159 0c31,0 60,5 87,14 27,10 49,26 67,50 17,24 26,56 26,95 0,35 -9,63 -25,82 -16,20 -38,35 -64,46 38,6 65,21 79,46 15,24 23,55 23,95 0,37 -6,69 -19,96 -12,26 -32,47 -58,61 -27,15 -61,22 -102,22l-173 0zm-453 -64l281 -479 -275 0 0 -64 351 0 0 64 -280 479 287 0 0 64 -364 0 0 -64zm-173 64l0 -607 71 0 0 607 -71 0zm-428 -237l-77 -313 -76 313 153 0zm-294 237l173 -607 95 0 166 607 -76 0 -45 -173 -192 0 -44 173 -77 0zm-549 0l-128 -607 77 0 82 416 14 120 18 -120 90 -416 83 0 90 434 12 109 13 -109 89 -434 71 0 -128 607 -90 0 -89 -466 -13 -90 -6 90 -96 466 -89 0zm-517 -314c0,1 1,19 2,56 1,36 5,70 11,101 7,30 20,57 39,79 20,22 47,33 82,33 36,0 63,-10 82,-29 19,-19 32,-44 38,-73 6,-29 8,-62 8,-99 0,-9 0,-20 0,-35 0,-15 0,-26 0,-33 0,-50 -3,-92 -10,-127 -6,-34 -19,-62 -38,-83 -20,-22 -49,-32 -86,-32 -34,0 -60,11 -79,35 -19,24 -32,54 -39,89 -7,36 -10,75 -10,118zm-71 1c2,-25 3,-55 6,-90 2,-36 9,-70 20,-101 11,-32 31,-59 60,-81 28,-22 68,-34 119,-35 42,0 77,9 105,27 27,19 48,43 62,73 15,30 25,63 30,98 5,36 7,74 7,115l0 17c0,83 -12,153 -37,213 -25,59 -81,89 -167,89 -53,0 -95,-13 -125,-39 -30,-26 -51,-62 -62,-109 -12,-48 -18,-107 -18,-177zm-384 122l70 0c1,4 2,20 3,48 1,27 4,46 7,57 3,11 8,19 17,25 8,6 21,9 38,9 16,0 29,-2 39,-6 11,-3 20,-12 27,-26 7,-14 10,-35 10,-63l0 -460 70 0 0 416c0,34 -1,63 -3,86 -2,23 -7,44 -16,61 -8,18 -21,32 -38,42 -18,10 -41,15 -70,15l-13 0c-54,0 -91,-14 -111,-42 -21,-28 -31,-70 -31,-125 0,-17 1,-29 1,-37zm-173 -46l-76 -313 -77 313 153 0zm-293 237l173 -607 95 0 166 607 -77 0 -44 -173 -192 0 -44 173 -77 0zm-364 -332l109 0c23,0 43,-4 59,-12 17,-8 29,-20 38,-35 8,-15 12,-33 12,-54 0,-1 0,-4 0,-7 0,-3 0,-6 0,-8 -4,-34 -15,-59 -34,-73 -20,-15 -49,-22 -88,-22l-96 0 0 211zm-70 332l0 -607 179 0c33,0 62,4 87,11 25,8 47,23 65,45 18,23 29,55 34,97l0 11c0,25 -6,47 -17,67 -12,20 -26,36 -44,48 -18,12 -36,19 -55,21 7,1 16,3 26,6 10,2 20,5 29,10 9,4 18,12 25,22 8,10 13,23 16,39 2,26 5,56 8,90 3,34 8,63 13,86 6,23 14,35 24,35l0 19 -84 0c-9,-18 -14,-42 -16,-72 -2,-30 -4,-61 -6,-95 -3,-33 -11,-58 -24,-75 -14,-18 -36,-26 -69,-26l-121 0 0 268 -70 0zm-461 0l0 -607 71 0 0 307 217 -307 89 0 -197 255 204 352 -89 0 -161 -288 -63 77 0 211 -71 0z"/>
  <path class="fil1" d="M5313 2387c1313,586 1889,2286 1983,3000 -951,571 -3044,659 -3981,-22 19,-678 829,-2532 1998,-2978zm1059 3597l34 123 79 -22c20,-5 35,-14 44,-26 12,-15 14,-35 7,-58 -5,-18 -15,-30 -29,-36 -19,-8 -46,-6 -81,3l-54 16zm-842 140l11 114 79 -7c32,-4 55,-12 67,-25 9,-10 13,-23 11,-40 -2,-18 -10,-32 -25,-41 -14,-9 -32,-12 -54,-10l-89 9zm624 -219l265 -75c80,-22 144,-22 193,0 48,23 82,66 99,130 16,55 12,103 -11,143 -28,49 -83,85 -165,108l-93 26 49 175 -182 51 -155 -558zm-2187 -125l182 50 -49 181 210 -136 212 58 -260 155 129 410 -217 -60 -74 -260 -55 34 -48 177 -183 -50 153 -559zm868 189l189 21 -64 576 -188 -22 63 -575zm494 39l277 -27c98,-10 168,0 209,29 31,22 49,59 54,110 4,40 -2,72 -17,97 -15,25 -37,43 -65,53 46,14 75,30 87,50 12,20 20,52 24,94l5 45c2,21 5,35 8,44 4,8 10,12 17,11l2 17 -189 19c-6,-13 -12,-46 -20,-100 -8,-53 -22,-82 -44,-88 -12,-2 -26,-4 -40,-4 -15,1 -33,2 -56,4l-28 3 20 201 -187 19 -57 -577zm48 -3795c1302,618 2163,2462 2193,3917 -1236,744 -3196,844 -4533,0 60,-2022 1352,-3576 2196,-3917 78,-31 93,-15 144,0z"/>
  <path class="fil1" d="M5330 7249l165 -341 219 -11 -195 198 298 -229 179 -15 -36 80c77,-73 164,-121 247,-131l-17 59c122,-78 243,-120 361,-119l-51 74 93 -9c152,-196 447,-347 1053,-521l-56 74 -736 375c144,12 561,-238 694,-316 -177,382 -491,540 -941,475 -254,-20 -410,15 -573,136 304,-91 632,-108 951,-14 -414,363 -404,440 -1057,160 -285,-109 -428,6 -598,75z"/>
  <path class="fil1" d="M5157 6913l146 257 148 -260 -125 1c0,23 14,24 14,47 0,16 -14,34 -31,34 -18,0 -32,-18 -32,-34 0,-23 13,-24 11,-46l-131 1z"/>
  <path class="fil1" d="M5275 7249l-165 -341 -219 -11 196 198 -298 -229 -179 -15 36 80c-78,-73 -165,-121 -248,-131l18 59c-123,-78 -243,-120 -361,-119l50 74 -93 -9c-152,-196 -446,-347 -1052,-521l56 74 735 375c-143,12 -560,-238 -694,-316 178,382 491,540 941,475 254,-20 410,15 573,136 -304,-91 -631,-108 -951,-14 414,363 404,440 1058,160 285,-109 428,6 597,75z"/>
  <path class="fil1" d="M5292 7367c-224,-279 -528,-242 -969,-1 307,231 737,206 969,1z"/>
  <path class="fil1" d="M6422 2895l-54 -40c-294,-326 -629,-592 -996,-767 -12,-3 -22,-7 -31,-10l-3 -2c212,47 424,132 636,244l-553 -360c261,53 522,106 783,159 69,414 289,712 682,897 -366,-254 -600,-555 -604,-861 440,170 805,417 775,710 -35,415 44,610 251,736l8 -8c-234,-295 -273,-564 -192,-840 282,242 430,430 394,563 -85,339 -90,672 -43,943 -187,-114 -359,-265 -433,-462l188 -18 -236 -39c-45,-82 -93,-162 -142,-241l266 38 -333 -141c-34,-51 -68,-101 -103,-150l110 -69 -154 9c-47,-63 -95,-125 -145,-186l228 46 -299 -151c0,0 0,0 0,0zm1285 3011c3,-353 101,-651 390,-972 -3,365 -136,683 -390,972zm-115 -593c75,-116 330,-320 421,-353 -134,180 -257,402 -371,609 -14,-85 -31,-171 -50,-256zm-395 -1173l384 222c-124,-333 -147,-668 27,-1007 311,499 300,617 -5,1198l-2 363c33,-297 127,-548 309,-733 216,416 61,749 -338,1045 -87,-366 -213,-735 -375,-1088z"/>
  <path class="fil1" d="M5313 7367c224,-279 529,-242 970,-1 -307,231 -738,206 -970,1z"/>
  <path class="fil1" d="M2915 5905c-3,-354 -100,-652 -390,-973 4,366 137,683 390,973zm1286 -3011l53 -40c295,-326 629,-593 997,-768 12,-3 22,-6 31,-9l2 -2c-212,46 -423,132 -635,243l552 -360c-261,53 -522,107 -783,160 -68,413 -288,712 -681,896 366,-253 600,-555 604,-860 -440,169 -806,417 -776,710 35,414 -44,610 -250,736l-8 -8c234,-296 272,-564 192,-840 -282,242 -431,430 -394,562 85,340 90,673 43,943 187,-114 359,-265 433,-461l-189 -19 236 -38c46,-82 94,-163 143,-242l-266 38 333 -141c33,-51 68,-100 103,-149l-110 -70 153 10c47,-64 96,-126 145,-186l-227 45 298 -151c0,0 1,1 1,1zm-775 1245l-384 222c123,-333 147,-669 -27,-1008 -312,500 -301,617 5,1199l2 363c-34,-298 -128,-549 -309,-733 -216,416 -61,749 337,1045 88,-367 214,-736 376,-1088zm-395 1172c-75,-116 -330,-320 -421,-353 133,180 257,402 370,609 15,-85 32,-170 51,-256z"/>
  <path class="fil1" d="M4723 3236c0,-152 53,-281 158,-385 106,-105 245,-157 418,-157 254,0 430,83 526,251 51,87 78,200 81,340l-278 0c-8,-100 -25,-174 -53,-221 -50,-86 -137,-129 -262,-129 -100,0 -176,23 -229,70 -52,47 -78,109 -78,187 0,45 9,86 29,122 19,37 49,69 88,96 79,54 218,136 418,247 357,199 535,407 535,629 0,125 -38,234 -115,328 -43,54 -117,117 -221,191 56,51 100,108 131,168 31,61 46,127 46,197 0,143 -56,265 -167,369 -112,104 -261,155 -450,155 -249,0 -424,-79 -523,-239 -55,-86 -89,-209 -100,-366l283 0c8,102 27,178 55,227 51,87 139,131 266,131 82,0 148,-12 198,-34 94,-41 140,-118 140,-231 0,-49 -14,-94 -42,-136 -17,-23 -41,-47 -72,-73 -17,-13 -72,-52 -166,-115 -54,-36 -107,-72 -157,-105l-283 -188c-112,-75 -192,-140 -240,-194 -84,-94 -125,-199 -125,-316 0,-101 31,-192 93,-274 63,-81 145,-153 247,-215 -47,-42 -83,-87 -108,-135 -29,-62 -43,-126 -43,-195zm855 1437c63,-35 109,-71 139,-107 52,-62 79,-139 79,-230 0,-82 -28,-152 -84,-210 -36,-36 -106,-86 -214,-151l-462 -281c-62,33 -108,66 -138,98 -56,59 -84,130 -84,214 0,46 7,85 20,120 27,64 76,119 148,166l596 381z"/>
 </g>
</svg>
