<?xml version="1.0" encoding="UTF-8"?>
<!DOCTYPE svg PUBLIC "-//W3C//DTD SVG 1.1//EN" "http://www.w3.org/Graphics/SVG/1.1/DTD/svg11.dtd">
<!-- Creator: CorelDRAW X8 -->
<svg xmlns="http://www.w3.org/2000/svg" xml:space="preserve" width="19.935mm" height="9.3768mm" version="1.1" style="shape-rendering:geometricPrecision; text-rendering:geometricPrecision; image-rendering:optimizeQuality; fill-rule:evenodd; clip-rule:evenodd"
viewBox="0 0 911 429"
 xmlns:xlink="http://www.w3.org/1999/xlink">
 <defs>
  <style type="text/css">
   <![CDATA[
    .fil0 {fill:#25294B;fill-rule:nonzero}
   ]]>
  </style>
 </defs>
 <g id="Warstwa_x0020_1">
  <metadata id="CorelCorpID_0Corel-Layer"/>
  <g id="_1777970947344">
   <g>
    <polygon class="fil0" points="462,214 498,90 472,8 448,8 448,0 581,0 581,8 556,8 620,212 672,8 628,8 628,0 714,0 714,8 686,8 607,306 568,306 504,111 448,306 411,306 302,8 282,8 282,0 422,0 422,8 392,8 "/>
    <polygon class="fil0" points="180,336 216,212 190,129 165,129 165,121 299,121 299,129 274,129 338,333 389,129 347,129 346,121 428,121 432,129 404,129 324,427 286,427 222,232 166,427 129,427 20,129 0,129 0,121 140,121 140,129 110,129 "/>
   </g>
   <path class="fil0" d="M414 378l4 0 -17 -20 16 -17 -4 0 -22 22 0 -22 -4 0 0 37 4 0 0 -10 8 -8 15 18zm36 0l5 0 -17 -37 -4 0 -17 37 4 0 5 -10 20 0 4 10zm-23 -13l9 -20 9 20 -18 0zm60 -24l0 30 -23 -30 -3 0 0 37 3 0 0 -30 24 30 3 0 0 -37 -4 0zm32 37c6,0 10,-2 14,-5l-3 -3c-3,3 -7,5 -11,5 -9,0 -15,-7 -15,-16 0,-8 6,-15 15,-15 4,0 8,1 11,4l3 -2c-4,-4 -8,-5 -14,-5 -11,0 -19,8 -19,18 0,11 8,19 19,19zm26 -4l0 -13 19 0 0 -4 -19 0 0 -13 21 0 0 -3 -25 0 0 37 26 0 0 -4 -22 0zm31 4l24 0 0 -4 -20 0 0 -33 -4 0 0 37zm58 0l4 0 -16 -37 -4 0 -17 37 4 0 4 -10 21 0 4 10zm-23 -13l9 -20 9 20 -18 0zm63 13l-9 -13c5,-2 8,-6 8,-11 0,-8 -5,-13 -15,-13l-14 0 0 37 4 0 0 -12 10 0c1,0 2,0 3,0l9 12 4 0zm-16 -15l-10 0 0 -19 10 0c7,0 11,4 11,10 0,5 -4,9 -11,9zm24 15l4 0 0 -37 -4 0 0 37zm44 0l4 0 -17 -37 -4 0 -17 37 4 0 5 -10 20 0 5 10zm-24 -13l9 -20 9 20 -18 0zm-286 63l-8 -12c5,-2 8,-6 8,-12 0,-8 -6,-12 -15,-12l-14 0 0 36 4 0 0 -11 10 0c1,0 2,0 3,-1l8 12 4 0zm-15 -15l-10 0 0 -18 10 0c7,0 11,3 11,9 0,6 -4,9 -11,9zm51 15l5 0 -17 -36 -4 0 -17 36 4 0 5 -10 20 0 4 10zm-23 -13l9 -19 9 19 -18 0zm34 13l15 0c11,0 19,-7 19,-18 0,-11 -8,-18 -19,-18l-15 0 0 36zm4 -3l0 -30 10 0c10,0 16,6 16,15 0,9 -6,15 -16,15l-10 0zm55 4c5,0 10,-2 13,-6l-2 -2c-3,3 -7,4 -11,4 -9,0 -15,-6 -15,-15 0,-9 6,-15 15,-15 4,0 8,1 11,4l2 -2c-3,-4 -8,-6 -13,-6 -11,0 -19,8 -19,19 0,11 8,19 19,19zm48 -37l-4 0 -12 20 -13 -20 -4 0 15 24 0 12 3 0 0 -12 15 -24zm34 0l-14 0 0 36 4 0 0 -11 10 0c9,0 15,-5 15,-13 0,-8 -6,-12 -15,-12zm-1 21l-9 0 0 -18 9 0c8,0 12,3 12,9 0,6 -4,9 -12,9zm53 15l-9 -12c6,-2 9,-6 9,-12 0,-8 -6,-12 -15,-12l-14 0 0 36 4 0 0 -11 10 0c1,0 2,0 3,-1l8 12 4 0zm-15 -15l-10 0 0 -18 10 0c7,0 11,3 11,9 0,6 -4,9 -11,9zm51 15l4 0 -16 -36 -4 0 -17 36 4 0 4 -10 21 0 4 10zm-23 -13l9 -19 8 19 -17 0zm78 -23l-11 31 -10 -31 -4 0 -11 31 -11 -31 -4 0 13 36 4 0 11 -31 10 31 5 0 12 -36 -4 0zm38 0l0 29 -24 -29 -3 0 0 36 4 0 0 -29 23 29 4 0 0 -36 -4 0zm19 33l0 -14 19 0 0 -3 -19 0 0 -13 22 0 0 -3 -25 0 0 36 25 0 0 -3 -22 0zm57 -3c-3,2 -6,3 -9,3 -9,0 -16,-6 -16,-15 0,-9 7,-15 16,-15 4,0 8,1 11,4l2 -2c-3,-4 -8,-6 -13,-6 -12,0 -20,8 -20,19 0,11 8,19 19,19 6,0 10,-2 14,-5l0 -14 -4 0 0 12zm31 7c11,0 19,-8 19,-19 0,-11 -8,-19 -19,-19 -11,0 -19,8 -19,19 0,11 8,19 19,19zm0 -4c-9,0 -16,-6 -16,-15 0,-9 7,-15 16,-15 9,0 15,6 15,15 0,9 -6,15 -15,15z"/>
  </g>
 </g>
</svg>
